<svg preserveAspectRatio="none" width="100%" height="100%" overflow="visible" style="display: block;" viewBox="0 0 848 16" fill="none" xmlns="http://www.w3.org/2000/svg">
<g id="Frame 95">
<path id="Line 1" d="M400 11C400 9.99998 400 8.99998 400 7.99998C393.333 8.02498 386.667 8.04998 380 8.07498C260 8.52499 140 8.97501 20 9.42502C13.3333 9.45002 6.66666 9.47502 1.31134e-07 9.50002C6.66666 9.52502 13.3333 9.55002 20 9.57502C140 10.025 260 10.475 380 10.925C386.667 10.95 393.333 10.975 400 11Z" fill="var(--stroke-0, #C0A577)"/>
<path id="Star 1" d="M424 0L427.394 4.60589L432 8L427.394 11.3941L424 16L420.606 11.3941L416 8L420.606 4.60589L424 0Z" fill="var(--fill-0, #C0A577)"/>
<path id="Line 2" d="M448 11C448 9.99998 448 8.99998 448 7.99998C454.667 8.02498 461.333 8.04998 468 8.07498C588 8.52499 708 8.97501 828 9.42502C834.667 9.45002 841.333 9.47502 848 9.50002C841.333 9.52502 834.667 9.55002 828 9.57502C708 10.025 588 10.475 468 10.925C461.333 10.95 454.667 10.975 448 11Z" fill="var(--stroke-0, #C0A577)"/>
</g>
</svg>
